ffmpeg started on 2025-06-07 at 17:04:56
Report written to "D:\Convert\FFMetrics\reports\ssim_report-6.txt"
Log level: 32
Command line:
ffmpeg -hide_banner -nostdin -i "G:\\\xc0\xed\xe8\xec\xe5\\\xce\xed\xe3\xee\xe8\xed\xe3\xe8\\!_36_\xce\xf1\xe5\xed\xfc_2024\\DreamCast\\\xdd\xe9, \xd2\xee\xec\xe1\xee!\\\xd2\xc2-1\\[DC] Ooi! Tonbo - 02_Telegram_HEVC.mkv" -i "G:\\\xc0\xed\xe8\xec\xe5\\\xce\xed\xe3\xee\xe8\xed\xe3\xe8\\!_36_\xce\xf1\xe5\xed\xfc_2024\\DreamCast\\\xdd\xe9, \xd2\xee\xec\xe1\xee!\\\xd2\xc2-1\\[DC] Ooi! Tonbo - 02_Telegram.mp4" -lavfi "[0:v]settb=AVTB,setpts=PTS-STARTPTS,format=pix_fmts=yuv420p10,fps=24000/1001,scale=1920:1080:flags=bicubic[main];[1:v]settb=AVTB,setpts=PTS-STARTPTS,format=pix_fmts=yuv420p,fps=24000/1001,scale=1920:1080:flags=bicubic[ref];[main][ref]ssim=eof_action=endall:stats_file='D\\:/Convert/FFMetrics/logs/ssim_logfile-6.txt'" -f null -
Input #0, matroska,webm, from 'G:\Аниме\Онгоинги\!_36_Осень_2024\DreamCast\Эй, Томбо!\ТВ-1\[DC] Ooi! Tonbo - 02_Telegram_HEVC.mkv':
  Metadata:
    COMPATIBLE_BRANDS: isomiso2avc1mp41
    MAJOR_BRAND     : isom
    MINOR_VERSION   : 512
    ENCODER         : Lavf61.7.100
  Duration: 00:24:21.93, start: -0.021000, bitrate: 1281 kb/s
  Stream #0:0: Video: hevc (Main 10), yuv420p10le(tv, bt709, progressive), 1920x1080 [SAR 1:1 DAR 16:9], 23.98 fps, 23.98 tbr, 1k tbn (default)
      Metadata:
        HANDLER_NAME    : VideoHandler
        VENDOR_ID       : [0][0][0][0]
        ENCODER         : Lavc61.19.100 libx265
        BPS             : 1086222
        DURATION        : 00:24:19.582708333
        NUMBER_OF_FRAMES: 34995
        NUMBER_OF_BYTES : 198178808
        _STATISTICS_WRITING_APP: mkvpropedit v66.0.0 ('Josie') 64-bit
        _STATISTICS_WRITING_DATE_UTC: 2025-06-05 13:23:20
        _STATISTICS_TAGS: BPS DURATION NUMBER_OF_FRAMES NUMBER_OF_BYTES
  Stream #0:1: Audio: aac (LC), 48000 Hz, stereo, fltp (default)
      Metadata:
        HANDLER_NAME    : SoundHandler
        VENDOR_ID       : [0][0][0][0]
        ENCODER         : Lavc61.19.100 aac
        BPS             : 192991
        DURATION        : 00:24:21.930000000
        NUMBER_OF_FRAMES: 68529
        NUMBER_OF_BYTES : 35267501
        _STATISTICS_WRITING_APP: mkvpropedit v66.0.0 ('Josie') 64-bit
        _STATISTICS_WRITING_DATE_UTC: 2025-06-05 13:23:20
        _STATISTICS_TAGS: BPS DURATION NUMBER_OF_FRAMES NUMBER_OF_BYTES
Input #1, mov,mp4,m4a,3gp,3g2,mj2, from 'G:\Аниме\Онгоинги\!_36_Осень_2024\DreamCast\Эй, Томбо!\ТВ-1\[DC] Ooi! Tonbo - 02_Telegram.mp4':
  Metadata:
    major_brand     : isom
    minor_version   : 512
    compatible_brands: isomiso2avc1mp41
    encoder         : Lavf60.16.100
  Duration: 00:24:21.89, start: 0.000000, bitrate: 3393 kb/s
  Stream #1:0[0x1](und): Video: h264 (High) (avc1 / 0x31637661), yuv420p(tv, bt709, progressive), 1920x1080 [SAR 1:1 DAR 16:9], 3250 kb/s, 23.98 fps, 23.98 tbr, 24k tbn (default)
      Metadata:
        handler_name    : VideoHandler
        vendor_id       : [0][0][0][0]
        encoder         : Lavc60.31.102 h264_qsv
  Stream #1:1[0x2](und): Audio: aac (HE-AACv2) (mp4a / 0x6134706D), 48000 Hz, stereo, fltp, 144 kb/s (default)
      Metadata:
        handler_name    : SoundHandler
        vendor_id       : [0][0][0][0]
Stream mapping:
  Stream #0:0 (hevc) -> settb:default
  Stream #1:0 (h264) -> settb:default
  ssim:default -> Stream #0:0 (wrapped_avframe)
  Stream #0:1 -> #0:1 (aac (native) -> pcm_s16le (native))
Output #0, null, to 'pipe:':
  Metadata:
    COMPATIBLE_BRANDS: isomiso2avc1mp41
    MAJOR_BRAND     : isom
    MINOR_VERSION   : 512
    encoder         : Lavf61.7.100
  Stream #0:0: Video: wrapped_avframe, yuv420p10le(tv, bt709, progressive), 1920x1080 [SAR 1:1 DAR 16:9], q=2-31, 200 kb/s, 23.98 fps, 23.98 tbn
      Metadata:
        encoder         : Lavc61.19.100 wrapped_avframe
  Stream #0:1: Audio: pcm_s16le, 48000 Hz, stereo, s16, 1536 kb/s (default)
      Metadata:
        HANDLER_NAME    : SoundHandler
        VENDOR_ID       : [0][0][0][0]
        _STATISTICS_TAGS: BPS DURATION NUMBER_OF_FRAMES NUMBER_OF_BYTES
        BPS             : 192991
        DURATION        : 00:24:21.930000000
        NUMBER_OF_FRAMES: 68529
        NUMBER_OF_BYTES : 35267501
        _STATISTICS_WRITING_APP: mkvpropedit v66.0.0 ('Josie') 64-bit
        _STATISTICS_WRITING_DATE_UTC: 2025-06-05 13:23:20
        encoder         : Lavc61.19.100 pcm_s16le
frame=  181 fps=0.0 q=-0.0 size=N/A time=00:00:07.54 bitrate=N/A speed=14.4x    frame=  457 fps=442 q=-0.0 size=N/A time=00:00:19.06 bitrate=N/A speed=18.4x    frame=  695 fps=447 q=-0.0 size=N/A time=00:00:28.98 bitrate=N/A speed=18.6x    frame=  921 fps=446 q=-0.0 size=N/A time=00:00:38.41 bitrate=N/A speed=18.6x    frame= 1113 fps=432 q=-0.0 size=N/A time=00:00:46.42 bitrate=N/A speed=  18x    frame= 1325 fps=428 q=-0.0 size=N/A time=00:00:55.26 bitrate=N/A speed=17.8x    frame= 1550 fps=430 q=-0.0 size=N/A time=00:01:04.64 bitrate=N/A speed=17.9x    frame= 1776 fps=430 q=-0.0 size=N/A time=00:01:14.07 bitrate=N/A speed=17.9x    frame= 1998 fps=430 q=-0.0 size=N/A time=00:01:23.33 bitrate=N/A speed=17.9x    frame= 2231 fps=433 q=-0.0 size=N/A time=00:01:33.05 bitrate=N/A speed=  18x    frame= 2446 fps=431 q=-0.0 size=N/A time=00:01:42.06 bitrate=N/A speed=  18x    frame= 2679 fps=432 q=-0.0 size=N/A time=00:01:51.73 bitrate=N/A speed=  18x    frame= 2907 fps=433 q=-0.0 size=N/A time=00:02:01.24 bitrate=N/A speed=18.1x    frame= 3114 fps=431 q=-0.0 size=N/A time=00:02:09.87 bitrate=N/A speed=  18x    frame= 3385 fps=437 q=-0.0 size=N/A time=00:02:21.18 bitrate=N/A speed=18.2x    frame= 3616 fps=438 q=-0.0 size=N/A time=00:02:30.81 bitrate=N/A speed=18.3x    frame= 3860 fps=441 q=-0.0 size=N/A time=00:02:40.99 bitrate=N/A speed=18.4x    frame= 4074 fps=439 q=-0.0 size=N/A time=00:02:49.91 bitrate=N/A speed=18.3x    frame= 4299 fps=439 q=-0.0 size=N/A time=00:02:59.30 bitrate=N/A speed=18.3x    frame= 4551 fps=441 q=-0.0 size=N/A time=00:03:09.81 bitrate=N/A speed=18.4x    frame= 4832 fps=446 q=-0.0 size=N/A time=00:03:21.53 bitrate=N/A speed=18.6x    frame= 5100 fps=450 q=-0.0 size=N/A time=00:03:32.71 bitrate=N/A speed=18.8x    frame= 5333 fps=449 q=-0.0 size=N/A time=00:03:42.43 bitrate=N/A speed=18.7x    frame= 5560 fps=449 q=-0.0 size=N/A time=00:03:51.89 bitrate=N/A speed=18.7x    frame= 5786 fps=449 q=-0.0 size=N/A time=00:04:01.32 bitrate=N/A speed=18.7x    frame= 6014 fps=448 q=-0.0 size=N/A time=00:04:10.83 bitrate=N/A speed=18.7x    frame= 6251 fps=449 q=-0.0 size=N/A time=00:04:20.71 bitrate=N/A speed=18.7x    frame= 6480 fps=449 q=-0.0 size=N/A time=00:04:30.27 bitrate=N/A speed=18.7x    frame= 6685 fps=447 q=-0.0 size=N/A time=00:04:38.82 bitrate=N/A speed=18.6x    frame= 6875 fps=445 q=-0.0 size=N/A time=00:04:46.74 bitrate=N/A speed=18.5x    frame= 7148 fps=447 q=-0.0 size=N/A time=00:04:58.13 bitrate=N/A speed=18.6x    frame= 7415 fps=449 q=-0.0 size=N/A time=00:05:09.26 bitrate=N/A speed=18.7x    frame= 7676 fps=451 q=-0.0 size=N/A time=00:05:20.15 bitrate=N/A speed=18.8x    frame= 7949 fps=453 q=-0.0 size=N/A time=00:05:31.53 bitrate=N/A speed=18.9x    frame= 8173 fps=453 q=-0.0 size=N/A time=00:05:40.88 bitrate=N/A speed=18.9x    frame= 8440 fps=455 q=-0.0 size=N/A time=00:05:52.01 bitrate=N/A speed=  19x    frame= 8678 fps=455 q=-0.0 size=N/A time=00:06:01.94 bitrate=N/A speed=  19x    frame= 8879 fps=453 q=-0.0 size=N/A time=00:06:10.32 bitrate=N/A speed=18.9x    frame= 9085 fps=452 q=-0.0 size=N/A time=00:06:18.92 bitrate=N/A speed=18.8x    frame= 9354 fps=453 q=-0.0 size=N/A time=00:06:30.13 bitrate=N/A speed=18.9x    frame= 9591 fps=454 q=-0.0 size=N/A time=00:06:40.02 bitrate=N/A speed=18.9x    frame= 9817 fps=453 q=-0.0 size=N/A time=00:06:49.45 bitrate=N/A speed=18.9x    frame=10032 fps=453 q=-0.0 size=N/A time=00:06:58.41 bitrate=N/A speed=18.9x    frame=10318 fps=455 q=-0.0 size=N/A time=00:07:10.34 bitrate=N/A speed=  19x    frame=10554 fps=455 q=-0.0 size=N/A time=00:07:20.18 bitrate=N/A speed=  19x    frame=10815 fps=456 q=-0.0 size=N/A time=00:07:31.07 bitrate=N/A speed=  19x    frame=11069 fps=457 q=-0.0 size=N/A time=00:07:41.66 bitrate=N/A speed=  19x    frame=11312 fps=457 q=-0.0 size=N/A time=00:07:51.80 bitrate=N/A speed=19.1x    frame=11525 fps=456 q=-0.0 size=N/A time=00:08:00.68 bitrate=N/A speed=  19x    frame=11797 fps=458 q=-0.0 size=N/A time=00:08:12.03 bitrate=N/A speed=19.1x    frame=12027 fps=457 q=-0.0 size=N/A time=00:08:21.62 bitrate=N/A speed=19.1x    frame=12281 fps=458 q=-0.0 size=N/A time=00:08:32.22 bitrate=N/A speed=19.1x    frame=12556 fps=459 q=-0.0 size=N/A time=00:08:43.68 bitrate=N/A speed=19.2x    frame=12746 fps=458 q=-0.0 size=N/A time=00:08:51.61 bitrate=N/A speed=19.1x    frame=12998 fps=458 q=-0.0 size=N/A time=00:09:02.12 bitrate=N/A speed=19.1x    frame=13204 fps=457 q=-0.0 size=N/A time=00:09:10.71 bitrate=N/A speed=19.1x    frame=13486 fps=459 q=-0.0 size=N/A time=00:09:22.47 bitrate=N/A speed=19.1x    frame=13754 fps=460 q=-0.0 size=N/A time=00:09:33.65 bitrate=N/A speed=19.2x    frame=13972 fps=459 q=-0.0 size=N/A time=00:09:42.74 bitrate=N/A speed=19.1x    frame=14180 fps=458 q=-0.0 size=N/A time=00:09:51.42 bitrate=N/A speed=19.1x    frame=14385 fps=457 q=-0.0 size=N/A time=00:09:59.97 bitrate=N/A speed=19.1x    frame=14647 fps=458 q=-0.0 size=N/A time=00:10:10.90 bitrate=N/A speed=19.1x    frame=14910 fps=459 q=-0.0 size=N/A time=00:10:21.87 bitrate=N/A speed=19.1x    frame=15170 fps=460 q=-0.0 size=N/A time=00:10:32.71 bitrate=N/A speed=19.2x    frame=15418 fps=460 q=-0.0 size=N/A time=00:10:43.05 bitrate=N/A speed=19.2x    frame=15620 fps=459 q=-0.0 size=N/A time=00:10:51.48 bitrate=N/A speed=19.1x    frame=15892 fps=460 q=-0.0 size=N/A time=00:11:02.82 bitrate=N/A speed=19.2x    frame=16100 fps=459 q=-0.0 size=N/A time=00:11:11.50 bitrate=N/A speed=19.1x    frame=16317 fps=459 q=-0.0 size=N/A time=00:11:20.55 bitrate=N/A speed=19.1x    frame=16600 fps=460 q=-0.0 size=N/A time=00:11:32.35 bitrate=N/A speed=19.2x    frame=16848 fps=460 q=-0.0 size=N/A time=00:11:42.70 bitrate=N/A speed=19.2x    frame=17122 fps=461 q=-0.0 size=N/A time=00:11:54.13 bitrate=N/A speed=19.2x    frame=17366 fps=461 q=-0.0 size=N/A time=00:12:04.30 bitrate=N/A speed=19.2x    frame=17586 fps=461 q=-0.0 size=N/A time=00:12:13.48 bitrate=N/A speed=19.2x    frame=17810 fps=461 q=-0.0 size=N/A time=00:12:22.82 bitrate=N/A speed=19.2x    frame=18068 fps=461 q=-0.0 size=N/A time=00:12:33.58 bitrate=N/A speed=19.2x    frame=18239 fps=459 q=-0.0 size=N/A time=00:12:40.71 bitrate=N/A speed=19.2x    frame=18470 fps=459 q=-0.0 size=N/A time=00:12:50.35 bitrate=N/A speed=19.2x    frame=18732 fps=460 q=-0.0 size=N/A time=00:13:01.28 bitrate=N/A speed=19.2x    frame=18984 fps=460 q=-0.0 size=N/A time=00:13:11.79 bitrate=N/A speed=19.2x    frame=19272 fps=461 q=-0.0 size=N/A time=00:13:23.80 bitrate=N/A speed=19.2x    frame=19544 fps=462 q=-0.0 size=N/A time=00:13:35.14 bitrate=N/A speed=19.3x    frame=19819 fps=463 q=-0.0 size=N/A time=00:13:46.61 bitrate=N/A speed=19.3x    frame=20115 fps=464 q=-0.0 size=N/A time=00:13:58.96 bitrate=N/A speed=19.4x    frame=20399 fps=465 q=-0.0 size=N/A time=00:14:10.80 bitrate=N/A speed=19.4x    frame=20666 fps=466 q=-0.0 size=N/A time=00:14:21.94 bitrate=N/A speed=19.4x    frame=20940 fps=467 q=-0.0 size=N/A time=00:14:33.37 bitrate=N/A speed=19.5x    frame=21200 fps=467 q=-0.0 size=N/A time=00:14:44.21 bitrate=N/A speed=19.5x    frame=21478 fps=468 q=-0.0 size=N/A time=00:14:55.81 bitrate=N/A speed=19.5x    frame=21746 fps=469 q=-0.0 size=N/A time=00:15:06.98 bitrate=N/A speed=19.5x    frame=22007 fps=469 q=-0.0 size=N/A time=00:15:17.87 bitrate=N/A speed=19.6x    frame=22254 fps=469 q=-0.0 size=N/A time=00:15:28.17 bitrate=N/A speed=19.6x    frame=22536 fps=470 q=-0.0 size=N/A time=00:15:39.93 bitrate=N/A speed=19.6x    frame=22794 fps=470 q=-0.0 size=N/A time=00:15:50.69 bitrate=N/A speed=19.6x    frame=23084 fps=471 q=-0.0 size=N/A time=00:16:02.79 bitrate=N/A speed=19.7x    frame=23379 fps=472 q=-0.0 size=N/A time=00:16:15.09 bitrate=N/A speed=19.7x    frame=23667 fps=473 q=-0.0 size=N/A time=00:16:27.11 bitrate=N/A speed=19.7x    frame=23926 fps=473 q=-0.0 size=N/A time=00:16:37.91 bitrate=N/A speed=19.7x    frame=24208 fps=474 q=-0.0 size=N/A time=00:16:49.67 bitrate=N/A speed=19.8x    frame=24477 fps=475 q=-0.0 size=N/A time=00:17:00.89 bitrate=N/A speed=19.8x    frame=24746 fps=475 q=-0.0 size=N/A time=00:17:12.11 bitrate=N/A speed=19.8x    frame=25028 fps=476 q=-0.0 size=N/A time=00:17:23.87 bitrate=N/A speed=19.8x    frame=25304 fps=476 q=-0.0 size=N/A time=00:17:35.38 bitrate=N/A speed=19.9x    frame=25595 fps=477 q=-0.0 size=N/A time=00:17:47.52 bitrate=N/A speed=19.9x    frame=25869 fps=478 q=-0.0 size=N/A time=00:17:58.95 bitrate=N/A speed=19.9x    frame=26114 fps=478 q=-0.0 size=N/A time=00:18:09.17 bitrate=N/A speed=19.9x    frame=26341 fps=477 q=-0.0 size=N/A time=00:18:18.63 bitrate=N/A speed=19.9x    frame=26623 fps=478 q=-0.0 size=N/A time=00:18:30.40 bitrate=N/A speed=19.9x    frame=26875 fps=478 q=-0.0 size=N/A time=00:18:40.91 bitrate=N/A speed=19.9x    frame=27125 fps=478 q=-0.0 size=N/A time=00:18:51.33 bitrate=N/A speed=19.9x    frame=27387 fps=478 q=-0.0 size=N/A time=00:19:02.26 bitrate=N/A speed=  20x    frame=27657 fps=479 q=-0.0 size=N/A time=00:19:13.52 bitrate=N/A speed=  20x    frame=27906 fps=479 q=-0.0 size=N/A time=00:19:23.91 bitrate=N/A speed=  20x    frame=28171 fps=479 q=-0.0 size=N/A time=00:19:34.96 bitrate=N/A speed=  20x    frame=28401 fps=479 q=-0.0 size=N/A time=00:19:44.55 bitrate=N/A speed=  20x    frame=28601 fps=478 q=-0.0 size=N/A time=00:19:52.90 bitrate=N/A speed=19.9x    frame=28840 fps=478 q=-0.0 size=N/A time=00:20:02.86 bitrate=N/A speed=19.9x    frame=29098 fps=478 q=-0.0 size=N/A time=00:20:13.62 bitrate=N/A speed=19.9x    frame=29386 fps=479 q=-0.0 size=N/A time=00:20:25.64 bitrate=N/A speed=  20x    frame=29675 fps=480 q=-0.0 size=N/A time=00:20:37.69 bitrate=N/A speed=  20x    frame=29897 fps=479 q=-0.0 size=N/A time=00:20:46.95 bitrate=N/A speed=  20x    frame=30148 fps=479 q=-0.0 size=N/A time=00:20:57.42 bitrate=N/A speed=  20x    frame=30410 fps=480 q=-0.0 size=N/A time=00:21:08.35 bitrate=N/A speed=  20x    frame=30651 fps=479 q=-0.0 size=N/A time=00:21:18.40 bitrate=N/A speed=  20x    frame=30903 fps=479 q=-0.0 size=N/A time=00:21:28.91 bitrate=N/A speed=  20x    frame=31167 fps=480 q=-0.0 size=N/A time=00:21:39.92 bitrate=N/A speed=  20x    frame=31421 fps=480 q=-0.0 size=N/A time=00:21:50.51 bitrate=N/A speed=  20x    frame=31714 fps=480 q=-0.0 size=N/A time=00:22:02.73 bitrate=N/A speed=  20x    frame=31987 fps=481 q=-0.0 size=N/A time=00:22:14.12 bitrate=N/A speed=20.1x    frame=32248 fps=481 q=-0.0 size=N/A time=00:22:25.01 bitrate=N/A speed=20.1x    frame=32483 fps=481 q=-0.0 size=N/A time=00:22:34.81 bitrate=N/A speed=20.1x    frame=32709 fps=481 q=-0.0 size=N/A time=00:22:44.23 bitrate=N/A speed=  20x    frame=32934 fps=480 q=-0.0 size=N/A time=00:22:53.62 bitrate=N/A speed=  20x    frame=33162 fps=480 q=-0.0 size=N/A time=00:23:03.13 bitrate=N/A speed=  20x    frame=33358 fps=479 q=-0.0 size=N/A time=00:23:11.30 bitrate=N/A speed=  20x    frame=33598 fps=479 q=-0.0 size=N/A time=00:23:21.31 bitrate=N/A speed=  20x    frame=33817 fps=479 q=-0.0 size=N/A time=00:23:30.45 bitrate=N/A speed=  20x    frame=34052 fps=479 q=-0.0 size=N/A time=00:23:40.25 bitrate=N/A speed=  20x    frame=34274 fps=478 q=-0.0 size=N/A time=00:23:49.51 bitrate=N/A speed=19.9x    frame=34502 fps=478 q=-0.0 size=N/A time=00:23:59.02 bitrate=N/A speed=19.9x    frame=34753 fps=478 q=-0.0 size=N/A time=00:24:09.48 bitrate=N/A speed=19.9x    [Parsed_ssim_10 @ 0000012da8187540] SSIM Y:0.994150 (22.328310) U:0.993407 (21.809487) V:0.994538 (22.626235) All:0.994091 (22.284672)
[out#0/null @ 0000012da5f34200] video:15037KiB audio:274116KiB subtitle:0KiB other streams:0KiB global headers:0KiB muxing overhead: unknown
frame=34995 fps=478 q=-0.0 Lsize=N/A time=00:24:19.58 bitrate=N/A speed=19.9x    
